<svg width="221" height="34" viewBox="0 0 221 34" fill="none" xmlns="http://www.w3.org/2000/svg">
<path d="M29.3539 29.3539H3.86648V3.86648H26.5255V0H0V33.2203H33.2203V6.69943H29.3539V29.3539Z" fill="url(#paint0_linear_11156_8535)"/>
<path d="M29.2662 0V3.86648H29.3538V3.95875H33.2203V0H29.2662Z" fill="url(#paint1_linear_11156_8535)"/>
<path d="M16.1351 7.53516H7.52094V11.4016H16.1351V7.53516Z" fill="url(#paint2_linear_11156_8535)"/>
<path d="M25.7027 21.8203H17.0884V25.6868H25.7027V21.8203Z" fill="url(#paint3_linear_11156_8535)"/>
<path d="M25.7045 14.6777H7.52094V18.5442H25.7045V14.6777Z" fill="url(#paint4_linear_11156_8535)"/>
<path d="M56.1547 12.948C56.088 12.2756 55.8018 11.7533 55.2961 11.3809C54.7905 11.0086 54.1042 10.8225 53.2373 10.8225C52.6483 10.8225 52.1509 10.9058 51.7453 11.0725C51.3396 11.2337 51.0284 11.4587 50.8117 11.7477C50.6005 12.0367 50.4949 12.3645 50.4949 12.7313C50.4838 13.0369 50.5477 13.3036 50.6867 13.5315C50.8311 13.7593 51.0284 13.9566 51.2785 14.1233C51.5285 14.2844 51.8175 14.4261 52.1454 14.5484C52.4732 14.6651 52.8233 14.7651 53.1956 14.8485L54.7293 15.2152C55.474 15.3819 56.1575 15.6042 56.7799 15.8821C57.4022 16.1599 57.9413 16.5017 58.3969 16.9073C58.8526 17.313 59.2055 17.7909 59.4555 18.341C59.7111 18.8912 59.8417 19.5219 59.8473 20.2332C59.8417 21.2779 59.575 22.1836 59.0471 22.9505C58.5247 23.7118 57.769 24.3036 56.7799 24.7259C55.7963 25.1427 54.6099 25.3511 53.2206 25.3511C51.8425 25.3511 50.6422 25.1399 49.6197 24.7176C48.6028 24.2953 47.8082 23.6701 47.2358 22.8421C46.669 22.0086 46.3717 20.9778 46.3439 19.7497H49.8364C49.8753 20.3221 50.0393 20.8 50.3282 21.1834C50.6228 21.5613 51.0145 21.8474 51.5035 22.0419C51.9981 22.2309 52.5566 22.3253 53.179 22.3253C53.7902 22.3253 54.3209 22.2364 54.771 22.0586C55.2267 21.8808 55.5796 21.6335 55.8296 21.3168C56.0797 21 56.2047 20.636 56.2047 20.2248C56.2047 19.8414 56.0908 19.5191 55.863 19.2579C55.6407 18.9967 55.3128 18.7745 54.8794 18.5911C54.4515 18.4077 53.9264 18.241 53.304 18.091L51.4452 17.6242C50.0059 17.2741 48.8695 16.7267 48.036 15.9821C47.2025 15.2375 46.7885 14.2344 46.794 12.973C46.7885 11.9394 47.0635 11.0364 47.6192 10.264C48.1805 9.49158 48.9501 8.88865 49.9281 8.45521C50.9062 8.02176 52.0175 7.80504 53.2623 7.80504C54.5293 7.80504 55.6351 8.02176 56.5798 8.45521C57.53 8.88865 58.2691 9.49158 58.797 10.264C59.3249 11.0364 59.5972 11.9311 59.6139 12.948H56.1547ZM62.1341 25.1094V8.03843H73.637V11.0142H65.7434V15.0819H73.0452V18.0576H65.7434V22.1336H73.6704V25.1094H62.1341ZM92.0529 16.5739C92.0529 18.4355 91.7 20.0192 90.9943 21.3251C90.2941 22.631 89.3383 23.6284 88.1269 24.3175C86.9211 25.001 85.5652 25.3428 84.0592 25.3428C82.5422 25.3428 81.1807 24.9982 79.9749 24.3092C78.769 23.6201 77.816 22.6226 77.1158 21.3168C76.4157 20.0109 76.0656 18.4299 76.0656 16.5739C76.0656 14.7123 76.4157 13.1286 77.1158 11.8227C77.816 10.5168 78.769 9.52214 79.9749 8.83864C81.1807 8.14957 82.5422 7.80504 84.0592 7.80504C85.5652 7.80504 86.9211 8.14957 88.1269 8.83864C89.3383 9.52214 90.2941 10.5168 90.9943 11.8227C91.7 13.1286 92.0529 14.7123 92.0529 16.5739ZM88.3937 16.5739C88.3937 15.368 88.2131 14.3511 87.8519 13.5231C87.4962 12.6952 86.9933 12.0672 86.3432 11.6393C85.693 11.2115 84.9317 10.9975 84.0592 10.9975C83.1868 10.9975 82.4255 11.2115 81.7753 11.6393C81.1252 12.0672 80.6195 12.6952 80.2583 13.5231C79.9027 14.3511 79.7248 15.368 79.7248 16.5739C79.7248 17.7798 79.9027 18.7967 80.2583 19.6247C80.6195 20.4527 81.1252 21.0806 81.7753 21.5085C82.4255 21.9364 83.1868 22.1503 84.0592 22.1503C84.9317 22.1503 85.693 21.9364 86.3432 21.5085C86.9933 21.0806 87.4962 20.4527 87.8519 19.6247C88.2131 18.7967 88.3937 17.7798 88.3937 16.5739ZM114.94 14.0149H111.289C111.222 13.5426 111.086 13.123 110.88 12.7563C110.675 12.384 110.411 12.0672 110.088 11.806C109.766 11.5449 109.394 11.3448 108.971 11.2059C108.555 11.067 108.102 10.9975 107.613 10.9975C106.729 10.9975 105.96 11.217 105.304 11.656C104.648 12.0894 104.14 12.7229 103.778 13.5565C103.417 14.3845 103.237 15.3903 103.237 16.5739C103.237 17.7909 103.417 18.8134 103.778 19.6413C104.145 20.4693 104.656 21.0945 105.312 21.5168C105.968 21.9391 106.726 22.1503 107.588 22.1503C108.071 22.1503 108.518 22.0864 108.93 21.9586C109.346 21.8308 109.716 21.6446 110.038 21.4001C110.361 21.1501 110.627 20.8472 110.839 20.4916C111.055 20.1359 111.205 19.7303 111.289 19.2746L114.94 19.2913C114.845 20.0748 114.609 20.8305 114.231 21.5585C113.859 22.2809 113.356 22.9283 112.722 23.5006C112.094 24.0674 111.344 24.5176 110.472 24.851C109.605 25.1788 108.624 25.3428 107.529 25.3428C106.007 25.3428 104.645 24.9982 103.445 24.3092C102.25 23.6201 101.306 22.6226 100.611 21.3168C99.9219 20.0109 99.5774 18.4299 99.5774 16.5739C99.5774 14.7123 99.9275 13.1286 100.628 11.8227C101.328 10.5168 102.278 9.52214 103.478 8.83864C104.679 8.14957 106.029 7.80504 107.529 7.80504C108.518 7.80504 109.435 7.94397 110.28 8.22181C111.13 8.49966 111.883 8.90532 112.539 9.43878C113.195 9.9667 113.728 10.6141 114.139 11.3809C114.556 12.1478 114.823 13.0258 114.94 14.0149ZM123.105 25.3594C121.81 25.3594 120.69 25.0844 119.746 24.5342C118.807 23.9785 118.081 23.2061 117.57 22.217C117.059 21.2223 116.803 20.0692 116.803 18.7578C116.803 17.4352 117.059 16.2794 117.57 15.2903C118.081 14.2956 118.807 13.5231 119.746 12.973C120.69 12.4173 121.81 12.1395 123.105 12.1395C124.4 12.1395 125.517 12.4173 126.456 12.973C127.4 13.5231 128.128 14.2956 128.64 15.2903C129.151 16.2794 129.407 17.4352 129.407 18.7578C129.407 20.0692 129.151 21.2223 128.64 22.217C128.128 23.2061 127.4 23.9785 126.456 24.5342C125.517 25.0844 124.4 25.3594 123.105 25.3594ZM123.122 22.6087C123.711 22.6087 124.202 22.442 124.597 22.1086C124.992 21.7697 125.289 21.3084 125.489 20.7249C125.694 20.1415 125.797 19.4774 125.797 18.7328C125.797 17.9881 125.694 17.3241 125.489 16.7406C125.289 16.1571 124.992 15.6959 124.597 15.3569C124.202 15.018 123.711 14.8485 123.122 14.8485C122.527 14.8485 122.027 15.018 121.621 15.3569C121.221 15.6959 120.918 16.1571 120.713 16.7406C120.513 17.3241 120.413 17.9881 120.413 18.7328C120.413 19.4774 120.513 20.1415 120.713 20.7249C120.918 21.3084 121.221 21.7697 121.621 22.1086C122.027 22.442 122.527 22.6087 123.122 22.6087ZM135.125 17.7075V25.1094H131.575V12.3062H134.959V14.5651H135.109C135.392 13.8204 135.867 13.2314 136.534 12.798C137.201 12.359 138.01 12.1395 138.96 12.1395C139.849 12.1395 140.624 12.334 141.285 12.7229C141.947 13.1119 142.461 13.6676 142.827 14.39C143.194 15.1069 143.378 15.9626 143.378 16.9573V25.1094H139.827V17.5908C139.832 16.8073 139.632 16.196 139.227 15.757C138.821 15.3125 138.262 15.0902 137.551 15.0902C137.073 15.0902 136.651 15.193 136.284 15.3986C135.923 15.6042 135.64 15.9043 135.434 16.2988C135.234 16.6878 135.131 17.1574 135.125 17.7075ZM152.845 12.3062V14.9735H145.135V12.3062H152.845ZM146.886 9.23874H150.436V21.1751C150.436 21.5029 150.486 21.7585 150.586 21.9419C150.687 22.1197 150.825 22.2448 151.003 22.317C151.187 22.3892 151.398 22.4254 151.637 22.4254C151.803 22.4254 151.97 22.4115 152.137 22.3837C152.304 22.3504 152.431 22.3253 152.52 22.3087L153.079 24.951C152.901 25.0066 152.651 25.0705 152.329 25.1427C152.006 25.2205 151.615 25.2677 151.153 25.2844C150.298 25.3178 149.547 25.2038 148.903 24.9427C148.264 24.6815 147.766 24.2758 147.411 23.7257C147.055 23.1756 146.88 22.4809 146.886 21.6418V9.23874ZM160.715 25.3594C159.398 25.3594 158.264 25.0927 157.314 24.5592C156.369 24.0202 155.641 23.2589 155.13 22.2753C154.619 21.2862 154.363 20.1165 154.363 18.7661C154.363 17.4491 154.619 16.2933 155.13 15.2986C155.641 14.3039 156.361 13.5287 157.289 12.973C158.223 12.4173 159.317 12.1395 160.573 12.1395C161.418 12.1395 162.204 12.2756 162.932 12.5479C163.666 12.8146 164.305 13.2175 164.849 13.7565C165.399 14.2956 165.827 14.9735 166.133 15.7904C166.439 16.6017 166.591 17.5519 166.591 18.6411V19.6163H155.78V17.4158H163.249C163.249 16.9045 163.138 16.4517 162.915 16.0571C162.693 15.6626 162.385 15.3542 161.99 15.1319C161.601 14.904 161.148 14.7901 160.632 14.7901C160.093 14.7901 159.615 14.9152 159.198 15.1652C158.787 15.4097 158.464 15.7404 158.231 16.1571C157.998 16.5683 157.878 17.0268 157.873 17.5325V19.6247C157.873 20.2582 157.989 20.8055 158.223 21.2667C158.462 21.728 158.798 22.0836 159.231 22.3337C159.665 22.5837 160.179 22.7088 160.773 22.7088C161.168 22.7088 161.529 22.6532 161.857 22.5421C162.185 22.4309 162.465 22.2642 162.699 22.0419C162.932 21.8197 163.11 21.5474 163.232 21.2251L166.516 21.4418C166.35 22.2309 166.008 22.9199 165.491 23.509C164.98 24.0925 164.319 24.5481 163.507 24.876C162.701 25.1983 161.771 25.3594 160.715 25.3594ZM172.319 17.7075V25.1094H168.768V12.3062H172.152V14.5651H172.302C172.585 13.8204 173.061 13.2314 173.727 12.798C174.394 12.359 175.203 12.1395 176.153 12.1395C177.042 12.1395 177.817 12.334 178.479 12.7229C179.14 13.1119 179.654 13.6676 180.021 14.39C180.387 15.1069 180.571 15.9626 180.571 16.9573V25.1094H177.02V17.5908C177.025 16.8073 176.825 16.196 176.42 15.757C176.014 15.3125 175.456 15.0902 174.744 15.0902C174.266 15.0902 173.844 15.193 173.477 15.3986C173.116 15.6042 172.833 15.9043 172.627 16.2988C172.427 16.6878 172.324 17.1574 172.319 17.7075ZM190.039 12.3062V14.9735H182.328V12.3062H190.039ZM184.079 9.23874H187.63V21.1751C187.63 21.5029 187.68 21.7585 187.78 21.9419C187.88 22.1197 188.019 22.2448 188.196 22.317C188.38 22.3892 188.591 22.4254 188.83 22.4254C188.997 22.4254 189.163 22.4115 189.33 22.3837C189.497 22.3504 189.625 22.3253 189.713 22.3087L190.272 24.951C190.094 25.0066 189.844 25.0705 189.522 25.1427C189.199 25.2205 188.808 25.2677 188.346 25.2844C187.491 25.3178 186.74 25.2038 186.096 24.9427C185.457 24.6815 184.959 24.2758 184.604 23.7257C184.248 23.1756 184.073 22.4809 184.079 21.6418V9.23874ZM200.512 25.1094H196.644L202.537 8.03843H207.188L213.073 25.1094H209.205L204.929 11.9394H204.796L200.512 25.1094ZM200.27 18.3994H209.406V21.2167H200.27V18.3994ZM218.596 8.03843V25.1094H214.987V8.03843H218.596Z" fill="white"/>
<defs>
<linearGradient id="paint0_linear_11156_8535" x1="0.831875" y1="3.56973" x2="32.654" y2="36.6252" gradientUnits="userSpaceOnUse">
<stop stop-color="#40EDC3"/>
<stop offset="1" stop-color="#B8F6A1"/>
</linearGradient>
<linearGradient id="paint1_linear_11156_8535" x1="28.1757" y1="-13.0224" x2="41.8948" y2="-9.99572" gradientUnits="userSpaceOnUse">
<stop stop-color="#40EDC3"/>
<stop offset="1" stop-color="#B8F6A1"/>
</linearGradient>
<linearGradient id="paint2_linear_11156_8535" x1="3.59035" y1="0.914989" x2="35.4125" y2="33.9705" gradientUnits="userSpaceOnUse">
<stop stop-color="#40EDC3"/>
<stop offset="1" stop-color="#B8F6A1"/>
</linearGradient>
<linearGradient id="paint3_linear_11156_8535" x1="1.42032" y1="3.00272" x2="33.2424" y2="36.0583" gradientUnits="userSpaceOnUse">
<stop stop-color="#40EDC3"/>
<stop offset="1" stop-color="#B8F6A1"/>
</linearGradient>
<linearGradient id="paint4_linear_11156_8535" x1="2.50621" y1="1.95887" x2="34.3284" y2="35.0145" gradientUnits="userSpaceOnUse">
<stop stop-color="#40EDC3"/>
<stop offset="1" stop-color="#B8F6A1"/>
</linearGradient>
</defs>
</svg>
